# xmcd
#
# Track frame offsets:
#	150
#	15185
#	35220
#	53687
#	70895
#	87431
#	104741
#	129245
#	145685
#	165157
#	179622
#	198097
#	217475
#	232731
#
# Disc length: 3911 seconds
#
# Revision: 0
# Processed by: cddbd v1.5.1PL0 Copyright (c) Steve Scherf et al.
# Submitted via: audiograbber 1.82.01
#
DISCID=bd0f450e
DTITLE=Hermes House Band - The Album
DYEAR=2001
DGENRE=
TTITLE0=Country roads
TTITLE1=I will survive
TTITLE2=Can`t take my eyes off of you
TTITLE3=Que sera sera
TTITLE4=Tonight`s the night
TTITLE5=Nana hey hey kiss him
TTITLE6=You`ve got a friend
TTITLE7=Disco samba part II
TTITLE8=Holiday express
TTITLE9=Don`t you cry
TTITLE10=I will survive(Karaoke Version)
TTITLE11=Can`t take my eyes off of you(Karaoke Verion)
TTITLE12=Country roads(Karaoke Version)
TTITLE13=Hermes House Band Mega Mix
EXTD=
EXTT0=
EXTT1=
EXTT2=
EXTT3=
EXTT4=
EXTT5=
EXTT6=
EXTT7=
EXTT8=
EXTT9=
EXTT10=
EXTT11=
EXTT12=
EXTT13=
PLAYORDER=
